<svg width="194" height="215" viewBox="0 0 194 215" fill="none" xmlns="http://www.w3.org/2000/svg">
<path d="M118.93 75.9591C118.724 76.7672 118.528 77.5641 118.346 78.3539C116.818 85.361 116.791 92.6935 116.747 99.9105C116.77 109.975 117.232 120.328 117.207 132.18C117.209 132.205 117.213 132.189 117.212 132.106C117.211 132.069 117.206 131.97 117.19 131.834C117.182 131.764 117.17 131.681 117.152 131.581C117.143 131.531 117.132 131.477 117.119 131.417C117.101 131.332 117.075 131.224 117.041 131.107C116.973 130.871 116.875 130.574 116.691 130.192C116.598 130.002 116.482 129.79 116.33 129.557C116.153 129.281 115.781 128.788 115.307 128.371C114.412 127.484 112.484 126.764 111.214 126.851C109.897 126.877 108.972 127.285 108.388 127.608C108.239 127.691 108.109 127.773 107.992 127.851C107.914 127.903 107.851 127.948 107.788 127.994C107.664 128.085 107.558 128.171 107.465 128.25C107.281 128.408 107.149 128.54 107.045 128.65C106.819 128.895 106.796 128.936 106.726 129.024C106.513 129.315 106.602 129.198 106.633 129.122C106.681 129.026 106.755 128.872 106.832 128.707C107.151 128.016 107.519 127.133 107.885 126.236C108.625 124.416 109.379 122.49 110.178 120.49C114.404 109.788 117.374 102.79 120.238 96.246C124.799 86.8112 126.81 78.2686 138.012 60.6318C138.132 60.4839 138.252 60.3395 138.372 60.1985C141.183 56.8044 145.899 52.7391 150.96 52.0608C153.085 51.4186 156.26 52.3286 157.699 53.7564C163.99 61.1187 162.453 66.9103 162.942 72.5434C162.96 78.1331 162.506 83.3789 162.038 88.2422C160.4 98.5998 157.28 105.311 155.74 111.613C154.971 114.362 154.248 116.763 153.668 118.804C152.262 123.717 150.895 126.942 149.499 129.889C148.799 131.358 148.08 132.768 147.325 134.268C146.947 135.019 146.566 135.78 146.175 136.594C145.976 137.011 145.785 137.414 145.6 137.824C145.511 138.02 145.418 138.235 145.35 138.392C145.313 138.48 145.286 138.55 145.28 138.543C145.279 138.509 145.285 138.572 145.319 138.189C145.324 138.09 145.329 137.961 145.313 137.76C145.312 137.748 145.297 137.562 145.257 137.381C145.216 137.191 145.15 136.953 145.004 136.655C144.764 136.079 143.865 135.149 142.809 134.985C142.559 134.937 142.32 134.924 142.108 134.931C141.896 134.942 141.847 134.952 141.729 134.969C141.522 135.003 141.349 135.052 141.202 135.103C140.91 135.207 140.721 135.316 140.578 135.406C140.297 135.589 140.182 135.708 140.097 135.791C142.499 133.688 145.288 130.172 148.853 125.138C154.155 117.619 158.851 111.504 163.837 106.139C169.044 100.985 174.384 94.5783 183.972 94.1525C185.331 94.031 186.95 94.5727 187.945 95.434C188.963 96.2774 189.553 97.2274 190.02 98.1192C191.524 101.122 192.179 104.75 193.059 108.885C194.766 116.396 193.668 126.03 190.63 135.119C188.577 142.904 182.538 150.323 178.128 155.493C176.037 158.977 173.9 161.147 172.147 163.936C167.043 171.57 161.881 177.719 158.383 181.905C155.28 185.608 151.795 189.21 148.065 192.548C140.056 199.887 130.455 205.831 122.442 209.681C118.27 211.938 114.263 211.613 111.035 211.881C110.81 211.893 110.595 211.903 110.375 211.913L110.513 211.89C107.511 212.564 105.017 213.224 102.94 213.789C102.366 213.947 101.798 214.084 101.266 214.175C100.166 214.359 99.6423 214.264 99.616 214.119C99.616 214.118 99.616 214.118 99.616 214.118C99.5826 213.922 100.331 213.65 101.632 213.267C101.964 213.166 102.299 213.05 102.652 212.924C104.814 212.148 107.328 211.303 110.15 210.483C110.172 210.478 110.239 210.466 110.262 210.464C113.726 210.012 117.956 209.867 121.171 207.661C123.407 206.137 125.72 204.782 128.009 203.173C136.061 197.457 140.449 193.435 145.194 189.361C150.829 184.246 157.184 178.877 166.724 165.498C167.563 164.287 168.362 163.087 169.124 161.895C170.944 158.91 173.567 155.821 174.635 153.745C180.646 145.922 184.135 141.234 186.057 133.739C188.132 126.233 189.538 118.424 187.662 110.16C187.115 107.832 186.599 105.458 185.906 103.293C185.564 102.23 185.144 101.193 184.733 100.554C184.536 100.238 184.348 100.062 184.337 100.047C184.314 100.037 184.528 100.072 184.475 100.047C183.813 100.084 183.638 100.067 183.352 100.083C183.093 100.095 182.842 100.119 182.591 100.157C182.083 100.233 181.546 100.368 180.983 100.561C175.898 102.496 171.805 106.756 168.521 110.405C159.602 120.392 155.726 129.018 145.428 141.163C145.27 141.317 145.075 141.509 144.672 141.775C144.468 141.907 144.206 142.061 143.816 142.211C143.62 142.285 143.392 142.358 143.119 142.414C142.817 142.463 142.653 142.53 141.887 142.493C140.53 142.466 138.942 141.355 138.441 140.422C137.874 139.489 137.822 138.88 137.767 138.47C137.733 138.121 137.741 137.916 137.749 137.731C137.769 137.38 137.816 137.143 137.839 137.016C137.86 136.911 137.879 136.821 137.899 136.738C137.988 136.377 138.025 136.264 138.087 136.06C138.188 135.733 138.286 135.448 138.378 135.182C138.564 134.647 138.749 134.143 138.937 133.639C139.311 132.636 139.695 131.636 140.091 130.613C140.882 128.57 141.712 126.453 142.575 124.229C144.298 119.773 146.205 114.864 148.027 109.348C148.905 106.658 149.857 103.848 150.875 100.912C152.588 95.87 154.293 91.3107 154.694 87.6238C156.096 75.2082 155.948 63.1536 152.494 59.7945C152.393 59.7407 152.421 59.8177 152.552 59.8775C152.679 59.9416 152.83 59.9456 152.793 59.9774C149.318 60.7088 147.484 62.8159 144.959 65.9565C140.294 72.9825 136.242 84.4488 130.684 100.07C130.227 101.375 129.765 102.689 129.285 104.046C127.446 109.241 125.541 114.568 123.533 120.01C122.525 122.736 121.497 125.482 120.401 128.263C119.849 129.657 119.284 131.062 118.626 132.557C118.295 133.294 117.964 134.046 117.426 135.033C117.308 135.248 117.104 135.603 116.884 135.933C116.736 136.156 116.568 136.395 116.334 136.679C116.242 136.792 115.994 137.081 115.725 137.334C115.585 137.467 115.423 137.611 115.226 137.765C115.127 137.841 115.02 137.921 114.901 138.002C114.775 138.09 114.516 138.257 114.268 138.387C113.261 138.895 111.43 139.643 108.875 138.634C107.737 138.156 106.908 137.395 106.403 136.753C106.281 136.601 106.14 136.4 106.083 136.313C106.021 136.218 105.963 136.126 105.911 136.037C105.805 135.858 105.717 135.69 105.641 135.531C105.343 134.902 105.22 134.42 105.139 134.061C105.085 133.812 105.051 133.598 105.027 133.404C105.002 133.21 104.987 133.037 104.977 132.875C104.968 132.736 104.964 132.641 104.961 132.531C104.955 132.319 104.956 132.122 104.961 131.929C105.306 120.986 105.878 110.071 106.682 99.2913C107.318 91.6685 107.759 84.2667 109.392 76.498C111.586 67.5275 113.109 60.1673 113.113 52.6211C113.225 42.9385 113.103 34.106 112.328 27.4271C112.199 26.392 112.066 25.3969 111.926 24.4497C111.664 22.6851 111.367 20.8989 110.971 19.3174C110.605 17.7224 109.958 16.4935 109.811 16.4857C108.799 15.5479 107.855 15.2345 107.665 15.2938C107.495 15.298 107.603 15.3178 107.804 15.252C108.005 15.1905 108.183 15.0647 108.19 15.0579C105.605 17.3278 103.442 20.0898 101.95 23.2844C97.1271 33.2818 94.0424 44.5457 92.2206 56.9599C90.6109 67.9512 89.3589 79.6651 87.3303 91.6302C86.8334 94.5169 86.3262 97.3881 85.7929 100.295C84.2998 108.026 83.1585 115.821 80.4988 124.626C80.272 125.279 80.1199 125.806 79.6449 126.833C79.5763 126.973 79.5002 127.128 79.3634 127.362C79.2992 127.471 79.2119 127.615 79.0794 127.802C78.9303 128 78.7827 128.236 78.2842 128.688C77.9771 128.938 77.6842 129.24 76.7279 129.614C75.9897 129.992 73.7726 130.034 72.6344 129.217C72.334 129.037 72.067 128.828 71.8622 128.639C71.6886 128.479 71.5412 128.32 71.4148 128.168C71.1687 127.874 70.9704 127.545 70.8827 127.38C70.6852 127.018 70.5622 126.664 70.5123 126.504C70.2812 125.704 70.3061 125.516 70.2726 125.244C70.2186 124.386 70.2613 124.087 70.2807 123.671C70.6565 119.535 71.298 116.226 71.5749 112.912C73.1634 101.559 74.0738 91.3199 74.2752 80.0372C74.5515 64.596 74.8535 48.696 73.8255 33.8212C73.1022 25.906 72.5651 17.6434 70.1589 11.7819C69.7109 10.7386 69.1891 9.79881 68.5546 8.94367C68.5108 8.86309 68.4996 8.91433 68.8726 9.15701C69.2016 9.41115 70.2703 9.69023 70.8554 9.55292C71.4455 9.44427 71.4937 9.32985 71.4042 9.3868C71.3076 9.43337 71.074 9.58235 70.8067 9.77253C61.5375 15.2516 57.3415 28.5193 53.3196 41.0554C49.3511 54.1916 46.4755 67.864 44.8178 80.857C42.9014 96.2152 42.1116 110.707 42.0563 122.372C42.072 127.009 42.3525 131.314 42.5122 135.096C42.636 137.965 42.7422 140.644 42.6755 143.233C42.6319 144.539 42.5753 145.776 42.2885 147.154C42.106 147.836 42.0349 148.545 41.1966 149.523C40.7803 150.018 39.8183 150.435 39.0872 150.317C38.7445 150.28 38.4587 150.187 38.21 150.079C37.9935 149.983 37.794 149.87 37.6034 149.743C33.6562 146.507 31.7853 143.583 29.1384 140.992C22.8286 134.802 16.5785 127.105 8.38677 124.131C7.24821 124.457 6.26263 125.083 5.86202 125.975C5.39094 126.982 5.33113 128.532 5.54323 130.071C5.67739 130.968 5.96019 132.075 6.24259 133.158C8.64756 141.964 11.8855 152.617 14.8634 163.611C16.6619 170.263 17.8302 177 21.7034 182.273C23.3143 184.558 24.9225 186.795 26.5 188.978C32.3352 197.098 30.419 195.728 23.8878 188.081C22.5765 186.528 21.319 184.993 20.1168 183.484C14.9402 177.012 13.9267 169.625 12.0944 164.417C11.1511 161.521 10.2571 158.991 9.37576 156.878C5.21346 146.621 2.5671 141.396 0.381685 130.692C0.223885 128.758 0.000614371 126.652 1.34102 123.762C2.57038 121.296 5.04513 119.96 7.09855 119.484C9.27305 119.025 10.3169 119.615 11.2694 119.955C12.1988 120.354 12.9502 120.804 13.676 121.279C22.7879 128.103 27.6622 133.261 32.6933 137.48C35.8036 140.122 39.1688 143.697 40.8049 144.787C40.7625 144.757 40.6795 144.704 40.5384 144.641C40.3909 144.575 40.1182 144.475 39.7641 144.428C38.9742 144.241 37.4693 144.762 36.9994 145.311C36.4564 145.849 36.4254 146.086 36.3834 146.16C36.3574 146.238 36.3897 146.171 36.4166 146.074C37.1654 141.005 36.9368 137.715 36.422 122.498C36.3937 113.626 36.3415 100.676 38.075 80.1245C38.104 79.8067 38.1337 79.4877 38.164 79.1675C39.6429 63.7918 42.3255 50.4548 45.4109 38.8194C49.6041 23.8804 54.1232 9.48792 65.1695 2.17768C66.0301 1.6393 66.6719 0.683717 69.5804 0.107902C71.0566 -0.152206 73.034 0.393813 74.0531 1.11469C75.128 1.82232 75.6653 2.47398 76.1175 3.02796C83.2807 13.5136 82.4286 21.9636 83.6467 28.9636C83.7851 30.2042 83.9179 31.5178 84.0474 32.911C85.1102 45.1398 84.7438 62.0636 84.0805 80.3082C83.7414 91.2425 82.4834 103.448 80.9543 113.713C80.5988 117.62 79.9114 121.389 79.6777 124.288C79.6717 124.395 79.6685 124.484 79.668 124.545C79.6662 124.596 79.6745 124.65 79.6644 124.486C79.6605 124.437 79.6557 124.378 79.6386 124.263C79.6177 124.14 79.5989 123.987 79.491 123.642C79.4424 123.491 79.3345 123.185 79.1402 122.838C78.8557 122.404 78.6256 121.812 77.2944 121.029C76.0865 120.267 73.9886 120.462 73.3684 120.809C72.4946 121.187 72.2822 121.431 72.0083 121.657C71.5978 122.039 71.4929 122.214 71.3917 122.348C71.306 122.469 71.2595 122.547 71.232 122.593C71.1723 122.695 71.1631 122.718 71.1575 122.727C71.1523 122.737 71.2408 122.521 71.311 122.321C71.3853 122.113 71.4653 121.874 71.5444 121.63C71.7874 120.875 72.0199 120.035 72.2317 119.2C74.1104 111.555 75.7799 101.223 77.5918 90.0415C79.3002 79.3208 80.5361 67.465 82.2624 55.4584C84.0877 42.6512 87.6777 29.6284 92.8856 18.9652C95.059 14.3362 98.2124 10.4485 101.61 7.47509C103.054 6.03011 106.083 5.14142 107.622 5.24887C111.874 5.27503 114.688 7.37773 116.607 9.05661C119.802 12.1575 120.219 15.0381 120.851 17.1298C121.392 19.3002 121.703 21.1499 121.991 22.8526C122.184 24.0141 122.35 25.117 122.5 26.1697C124.048 39.7838 123.509 46.1946 123.216 52.6106C122.833 58.9323 121.803 65.4005 118.93 75.9591Z" fill="#AAAAAA"/>
</svg>
